<?xml version="1.0" encoding="UTF-8" standalone="no"?>
<!-- Generator: Adobe Illustrator 19.0.0, SVG Export Plug-In . SVG Version: 6.00 Build 0)  -->

<svg
   xmlns:dc="http://purl.org/dc/elements/1.1/"
   xmlns:cc="http://creativecommons.org/ns#"
   xmlns:rdf="http://www.w3.org/1999/02/22-rdf-syntax-ns#"
   xmlns:svg="http://www.w3.org/2000/svg"
   xmlns="http://www.w3.org/2000/svg"
   xmlns:sodipodi="http://sodipodi.sourceforge.net/DTD/sodipodi-0.dtd"
   xmlns:inkscape="http://www.inkscape.org/namespaces/inkscape"
   version="1.1"
   id="Capa_1"
   x="0px"
   y="0px"
   viewBox="0 0 512 512"
   style="enable-background:new 0 0 512 512;"
   xml:space="preserve"
   inkscape:version="0.91 r13725"
   sodipodi:docname="cage.svg"><metadata
     id="metadata83"><rdf:RDF><cc:Work
         rdf:about=""><dc:format>image/svg+xml</dc:format><dc:type
           rdf:resource="http://purl.org/dc/dcmitype/StillImage" /></cc:Work></rdf:RDF></metadata><defs
     id="defs81" /><sodipodi:namedview
     pagecolor="#ffffff"
     bordercolor="#666666"
     borderopacity="1"
     objecttolerance="10"
     gridtolerance="10"
     guidetolerance="10"
     inkscape:pageopacity="0"
     inkscape:pageshadow="2"
     inkscape:window-width="1317"
     inkscape:window-height="744"
     id="namedview79"
     showgrid="false"
     inkscape:zoom="0.4609375"
     inkscape:cx="429.55932"
     inkscape:cy="256"
     inkscape:window-x="49"
     inkscape:window-y="24"
     inkscape:window-maximized="1"
     inkscape:current-layer="Capa_1" /><path
     style="fill:#4d4d4d"
     d="M 202.66797 21.332031 C 185.02197 21.332031 170.66797 35.686031 170.66797 53.332031 L 170.66797 64 L 110.07227 64 C 84.426258 64 62.385969 82.292 57.667969 107.5 L 33.630859 235.67383 C 14.434859 239.83583 4.7369516e-15 256.90703 0 277.33203 C 0 297.75703 14.434859 314.83019 33.630859 318.99219 L 57.666016 447.16602 C 62.385016 472.37402 84.426258 490.66602 110.07227 490.66602 L 401.92578 490.66602 C 427.57178 490.66602 449.61403 472.37402 454.33203 447.16602 L 478.36719 318.99219 C 497.56419 314.83119 511.99805 297.75803 511.99805 277.33203 C 511.99805 256.90603 497.56514 239.83583 478.36914 235.67383 L 454.33203 107.5 C 449.61303 82.292 427.57373 64 401.92773 64 L 341.33203 64 L 341.33203 53.332031 C 341.33203 35.686031 326.97803 21.332031 309.33203 21.332031 L 202.66797 21.332031 z M 202.66797 42.666016 L 309.33398 42.666016 C 315.21898 42.666016 320.00195 47.446031 320.00195 53.332031 L 320.00195 64 L 320 64 L 192 64 L 192 53.332031 C 192 47.447031 196.78197 42.666016 202.66797 42.666016 z M 110.07227 85.333984 L 401.92773 85.333984 C 417.31273 85.333984 430.531 96.3125 433.375 111.4375 L 456.48438 234.66797 L 55.515625 234.66797 L 78.625 111.4375 C 81.469 96.3125 94.687262 85.333984 110.07227 85.333984 z M 42.667969 256 L 469.33398 256 C 481.09398 256 490.66797 265.57203 490.66797 277.33203 C 490.66797 289.09203 481.09303 298.66797 469.33203 298.66797 L 42.667969 298.66797 C 30.907969 298.66797 21.333984 289.09398 21.333984 277.33398 C 21.333984 265.57398 30.906969 256 42.667969 256 z M 55.515625 320 L 456.48438 320 L 433.375 443.22852 C 430.531 458.35352 417.31273 469.33203 401.92773 469.33203 L 110.07227 469.33203 C 94.687266 469.33203 81.469 458.35352 78.625 443.22852 L 55.515625 320 z "
     id="path3" /><g
     id="g15"
     style="fill:#4d4d4d"><path
       style="fill:#4d4d4d"
       d="M160,213.333c5.896,0,10.667-4.771,10.667-10.667v-85.333c0-5.896-4.771-10.667-10.667-10.667   c-5.896,0-10.667,4.771-10.667,10.667v85.333C149.333,208.563,154.104,213.333,160,213.333z"
       id="path17" /><path
       style="fill:#4d4d4d"
       d="M224,213.333c5.896,0,10.667-4.771,10.667-10.667v-85.333c0-5.896-4.771-10.667-10.667-10.667   c-5.896,0-10.667,4.771-10.667,10.667v85.333C213.333,208.563,218.104,213.333,224,213.333z"
       id="path19" /><path
       style="fill:#4d4d4d"
       d="M288,213.333c5.896,0,10.667-4.771,10.667-10.667v-85.333c0-5.896-4.771-10.667-10.667-10.667   c-5.896,0-10.667,4.771-10.667,10.667v85.333C277.333,208.563,282.104,213.333,288,213.333z"
       id="path21" /><path
       style="fill:#4d4d4d"
       d="M352,213.333c5.896,0,10.667-4.771,10.667-10.667v-85.333c0-5.896-4.771-10.667-10.667-10.667   c-5.896,0-10.667,4.771-10.667,10.667v85.333C341.333,208.563,346.104,213.333,352,213.333z"
       id="path23" /></g><linearGradient
     id="SVGID_1_"
     gradientUnits="userSpaceOnUse"
     x1="-39.4025"
     y1="636.1831"
     x2="-27.4724"
     y2="624.254"
     gradientTransform="matrix(21.3333 0 0 -21.3333 996.3334 13791.667)"><stop
       offset="0"
       style="stop-color:#000000;stop-opacity:0.1"
       id="stop26" /><stop
       offset="1"
       style="stop-color:#000000;stop-opacity:0"
       id="stop28" /></linearGradient><g
     id="g32"
     style="fill:#4d4d4d"><path
       style="fill:#4d4d4d"
       d="M160,341.333c-5.896,0-10.667,4.771-10.667,10.667v85.333c0,5.896,4.771,10.667,10.667,10.667   c5.896,0,10.667-4.771,10.667-10.667V352C170.667,346.104,165.896,341.333,160,341.333z"
       id="path34" /><path
       style="fill:#4d4d4d"
       d="M224,341.333c-5.896,0-10.667,4.771-10.667,10.667v85.333c0,5.896,4.771,10.667,10.667,10.667   c5.896,0,10.667-4.771,10.667-10.667V352C234.667,346.104,229.896,341.333,224,341.333z"
       id="path36" /><path
       style="fill:#4d4d4d"
       d="M288,341.333c-5.896,0-10.667,4.771-10.667,10.667v85.333c0,5.896,4.771,10.667,10.667,10.667   c5.896,0,10.667-4.771,10.667-10.667V352C298.667,346.104,293.896,341.333,288,341.333z"
       id="path38" /><path
       style="fill:#4d4d4d"
       d="M352,341.333c-5.896,0-10.667,4.771-10.667,10.667v85.333c0,5.896,4.771,10.667,10.667,10.667   c5.896,0,10.667-4.771,10.667-10.667V352C362.667,346.104,357.896,341.333,352,341.333z"
       id="path40" /></g><linearGradient
     id="SVGID_2_"
     gradientUnits="userSpaceOnUse"
     x1="-45.4598"
     y1="638.5023"
     x2="-23.9464"
     y2="628.4665"
     gradientTransform="matrix(21.3333 0 0 -21.3333 996.3334 13791.667)"><stop
       offset="0"
       style="stop-color:#FFFFFF;stop-opacity:0.2"
       id="stop43" /><stop
       offset="1"
       style="stop-color:#FFFFFF;stop-opacity:0"
       id="stop45" /></linearGradient><g
     id="g49" /><g
     id="g51" /><g
     id="g53" /><g
     id="g55" /><g
     id="g57" /><g
     id="g59" /><g
     id="g61" /><g
     id="g63" /><g
     id="g65" /><g
     id="g67" /><g
     id="g69" /><g
     id="g71" /><g
     id="g73" /><g
     id="g75" /><g
     id="g77" /></svg>