<?xml version="1.0" encoding="UTF-8" standalone="no"?>
<!-- Generator: Adobe Illustrator 19.0.0, SVG Export Plug-In . SVG Version: 6.00 Build 0)  -->

<svg
   xmlns:dc="http://purl.org/dc/elements/1.1/"
   xmlns:cc="http://creativecommons.org/ns#"
   xmlns:rdf="http://www.w3.org/1999/02/22-rdf-syntax-ns#"
   xmlns:svg="http://www.w3.org/2000/svg"
   xmlns="http://www.w3.org/2000/svg"
   xmlns:sodipodi="http://sodipodi.sourceforge.net/DTD/sodipodi-0.dtd"
   xmlns:inkscape="http://www.inkscape.org/namespaces/inkscape"
   version="1.1"
   id="Layer_1"
   x="0px"
   y="0px"
   viewBox="0 0 511.93 511.93"
   style="enable-background:new 0 0 511.93 511.93;"
   xml:space="preserve"
   inkscape:version="0.91 r13725"
   sodipodi:docname="kennel.svg"><metadata
     id="metadata49"><rdf:RDF><cc:Work
         rdf:about=""><dc:format>image/svg+xml</dc:format><dc:type
           rdf:resource="http://purl.org/dc/dcmitype/StillImage" /></cc:Work></rdf:RDF></metadata><defs
     id="defs47" /><sodipodi:namedview
     pagecolor="#ffffff"
     bordercolor="#666666"
     borderopacity="1"
     objecttolerance="10"
     gridtolerance="10"
     guidetolerance="10"
     inkscape:pageopacity="0"
     inkscape:pageshadow="2"
     inkscape:window-width="808"
     inkscape:window-height="480"
     id="namedview45"
     showgrid="false"
     inkscape:zoom="0.46100053"
     inkscape:cx="255.965"
     inkscape:cy="255.965"
     inkscape:window-x="59"
     inkscape:window-y="34"
     inkscape:window-maximized="0"
     inkscape:current-layer="Layer_1" /><g
     id="g3"
     style="fill:#4d4d4d"><g
       id="g5"
       style="fill:#4d4d4d"><path
         d="M496.338,222.76c1.531,0.805,3.234,1.211,4.922,1.211c1.921,0,3.827-0.516,5.529-1.547    c3.188-1.929,5.141-5.39,5.141-9.116v-42.666c0-3.968-2.219-7.616-5.733-9.452L260.895,33.208c-3.094-1.617-6.773-1.617-9.867,0    L5.726,161.191C2.203,163.026,0,166.674,0,170.643v42.666c0,3.726,1.945,7.187,5.132,9.116c3.187,1.938,7.155,2.063,10.459,0.336    l27.066-14.123v228.647H31.996c-5.897,0-10.67,4.766-10.67,10.656c0,5.889,4.773,10.654,10.67,10.654h138.645h170.641h29.012    l3.313,13.264c1.188,4.75,5.436,8.076,10.342,8.076h106.642c4.905,0,9.155-3.326,10.343-8.076l10.686-42.666    c0.781-3.188,0.063-6.563-1.953-9.154c-2.016-2.578-5.108-4.094-8.404-4.094h-31.996V208.637L496.338,222.76z M330.611,437.284    H181.303V330.612c0-41.15,33.488-74.646,74.654-74.646c41.158,0,74.654,33.496,74.654,74.646V437.284z M373.278,415.944    c-3.281,0-6.391,1.516-8.406,4.094c-2.015,2.592-2.733,5.967-1.937,9.154l2.015,8.092h-12.998V330.612    c0-52.914-43.057-95.979-95.994-95.979c-52.922,0-95.987,43.065-95.987,95.979v106.672h-95.98v-21.34h53.321    c5.89,0,10.663-4.781,10.663-10.654c0-5.906-4.773-10.688-10.663-10.688H63.991V197.513L255.957,97.356l191.981,100.158v218.43    H373.278z M487.591,437.284l-5.313,21.311h-90.003l-5.327-21.311H487.591z M260.895,75.866c-1.547-0.805-3.242-1.211-4.938-1.211    c-1.688,0-3.382,0.406-4.929,1.211L21.325,195.709V177.11L255.957,54.69l234.632,122.42v18.599L260.895,75.866z"
         id="path7"
         style="fill:#4d4d4d" /></g></g><g
     id="g9"
     style="fill:#4d4d4d"><g
       id="g11"
       style="fill:#4d4d4d"><path
         d="M303.037,181.313l3.124-3.125c4.171-4.171,4.171-10.92,0-15.084c-4.171-4.164-10.921-4.164-15.076,0l-7.546,7.538h-55.156    l-7.538-7.538c-4.171-4.164-10.92-4.164-15.084,0s-4.164,10.913,0,15.084l3.125,3.125l-3.125,3.117    c-4.164,4.171-4.164,10.92,0,15.084c2.078,2.085,4.812,3.125,7.538,3.125c2.734,0,5.46-1.039,7.546-3.125l7.538-7.538h55.156    l7.546,7.538c2.078,2.085,4.812,3.125,7.53,3.125c2.734,0,5.468-1.039,7.546-3.125c4.171-4.164,4.171-10.913,0-15.084    L303.037,181.313z"
         id="path13"
         style="fill:#4d4d4d" /></g></g><g
     id="g15"
     style="fill:#4d4d4d" /><g
     id="g17"
     style="fill:#4d4d4d" /><g
     id="g19"
     style="fill:#4d4d4d" /><g
     id="g21"
     style="fill:#4d4d4d" /><g
     id="g23"
     style="fill:#4d4d4d" /><g
     id="g25"
     style="fill:#4d4d4d" /><g
     id="g27"
     style="fill:#4d4d4d" /><g
     id="g29"
     style="fill:#4d4d4d" /><g
     id="g31"
     style="fill:#4d4d4d" /><g
     id="g33"
     style="fill:#4d4d4d" /><g
     id="g35"
     style="fill:#4d4d4d" /><g
     id="g37"
     style="fill:#4d4d4d" /><g
     id="g39"
     style="fill:#4d4d4d" /><g
     id="g41"
     style="fill:#4d4d4d" /><g
     id="g43"
     style="fill:#4d4d4d" /></svg>