<?xml version="1.0" encoding="UTF-8"?>
<!DOCTYPE svg PUBLIC "-//W3C//DTD SVG 1.1//EN" "http://www.w3.org/Graphics/SVG/1.1/DTD/svg11.dtd">
<!-- Creator: CorelDRAW X7 -->
<svg xmlns="http://www.w3.org/2000/svg" xml:space="preserve" width="30.2017mm" height="14.9571mm" version="1.1" style="shape-rendering:geometricPrecision; text-rendering:geometricPrecision; image-rendering:optimizeQuality; fill-rule:evenodd; clip-rule:evenodd"
viewBox="0 0 3020 1496"
 xmlns:xlink="http://www.w3.org/1999/xlink">
 <defs>
  <style type="text/css">
   <![CDATA[
    .str0 {stroke:#FEFEFE;stroke-width:7.62003}
    .fil0 {fill:#F4A834}
    .fil1 {fill:#F4A834;fill-rule:nonzero}
   ]]>
  </style>
 </defs>
 <g id="Layer_x0020_1">
  <metadata id="CorelCorpID_0Corel-Layer"/>
  <g id="_2170247564016">
   <path class="fil0 str0" d="M382 387c-77,-148 -55,-311 49,-366 104,-54 251,22 328,169 77,147 55,311 -49,365 -105,54 -251,-21 -328,-168zm45 192c-77,-147 -224,-223 -328,-168 -104,54 -126,217 -49,365 77,147 223,222 328,168 104,-54 126,-218 49,-365zm96 379c0,20 2,39 5,58 -115,6 -165,141 -165,258 0,120 97,218 218,218 109,0 290,-81 315,-88l0 -90 0 -719c-3,0 -7,-1 -10,-1 -178,0 -363,186 -363,364zm863 -751c-1,-83 -34,-153 -95,-185 -105,-55 -251,21 -328,168 -12,23 -22,47 -29,70 28,-32 69,-53 115,-53l337 0 0 0zm483 528c-66,64 -110,152 -123,253 -83,71 -201,108 -332,108l-189 0 0 249c0,50 -41,91 -91,91l-68 0c-50,0 -90,-41 -90,-91l0 -951c0,-50 40,-90 90,-90l372 0c270,0 433,160 433,391 0,14 -1,27 -2,40zm-250 -35c0,-111 -78,-171 -202,-171l-192 0 0 346 197 0c124,0 197,-75 197,-172l0 -3 0 0 0 0zm188 350c0,-216 152,-383 369,-391 227,-9 313,136 345,229 13,41 -18,86 -59,99l-445 133c21,96 88,146 183,146 45,0 82,-9 119,-30 37,-21 88,-24 120,5l5 4c32,28 36,79 3,107 -64,53 -147,84 -250,84 -224,0 -390,-158 -390,-386zm208 -63l290 -84c-28,-72 -119,-84 -170,-68 -84,26 -112,73 -120,152zm614 225c0,172 88,224 218,224 36,0 68,-5 96,-13 41,-11 71,-65 71,-108l0 -15c0,-43 -22,-65 -51,-57 -17,4 -35,6 -54,6 -47,0 -68,-24 -68,-72l0 -319 98 0c43,0 77,-35 77,-78l0 -25c0,-43 -34,-78 -77,-78l-98 0 0 -113c0,-43 -35,-78 -78,-78l-56 0c-43,0 -78,35 -78,78l0 113 -44 0c-25,0 -45,35 -45,78l0 25c0,43 20,78 45,78 24,0 44,0 44,0l0 354 0 0z"/>
   <path class="fil1 str0" d="M1949 429l0 -148c0,-25 9,-46 27,-62 19,-15 44,-23 74,-23 31,0 55,8 71,23 16,15 24,36 24,65l0 145 -81 0 0 -145c0,-14 -5,-21 -17,-21 -12,0 -18,7 -18,21l0 145 -80 0zm334 -170c28,0 53,9 73,26 20,17 30,37 30,61 0,23 -10,44 -31,61 -20,17 -45,25 -74,25 -28,0 -53,-9 -74,-25 -20,-17 -30,-38 -30,-61 0,-25 10,-45 30,-62 21,-16 46,-25 76,-25zm-2 62c-8,0 -14,2 -20,7 -6,5 -8,11 -8,18 0,7 2,12 8,17 6,5 12,8 20,8 8,0 15,-3 21,-8 5,-5 8,-10 8,-17 0,-7 -3,-13 -8,-18 -6,-5 -13,-7 -21,-7zm202 -119l0 63 34 0 0 66 -34 0c0,13 3,22 8,27 5,5 14,8 27,8l0 65c-4,0 -7,0 -8,0 -17,0 -33,-3 -48,-10 -15,-6 -27,-15 -36,-26 -12,-15 -17,-34 -17,-57l0 -136 74 0zm266 154l-113 0c-2,-5 -2,-9 -2,-13 0,-6 1,-11 3,-17l38 0c-3,-12 -11,-18 -25,-18 -9,0 -17,3 -23,10 -6,6 -9,15 -9,25 0,11 3,20 9,26 5,7 13,10 22,10 8,0 15,-3 22,-9l42 42c-20,13 -42,20 -66,20 -29,0 -54,-8 -74,-25 -20,-16 -31,-37 -31,-61 0,-25 11,-45 31,-62 20,-17 45,-25 75,-25 29,0 53,8 72,25 20,16 30,36 30,60 0,3 0,6 -1,12z"/>
  </g>
 </g>
</svg>
