<?xml version="1.0" encoding="UTF-8" standalone="no"?>
<svg
   xmlns:dc="http://purl.org/dc/elements/1.1/"
   xmlns:cc="http://creativecommons.org/ns#"
   xmlns:rdf="http://www.w3.org/1999/02/22-rdf-syntax-ns#"
   xmlns:svg="http://www.w3.org/2000/svg"
   xmlns="http://www.w3.org/2000/svg"
   xmlns:sodipodi="http://sodipodi.sourceforge.net/DTD/sodipodi-0.dtd"
   xmlns:inkscape="http://www.inkscape.org/namespaces/inkscape"
   version="1.1"
   viewBox="0 0 380.16 380.16"
   enable-background="new 0 0 380.16 380.16"
   id="svg3396"
   inkscape:version="0.91 r13725"
   sodipodi:docname="search.svg">
  <metadata
     id="metadata3416">
    <rdf:RDF>
      <cc:Work
         rdf:about="">
        <dc:format>image/svg+xml</dc:format>
        <dc:type
           rdf:resource="http://purl.org/dc/dcmitype/StillImage" />
      </cc:Work>
    </rdf:RDF>
  </metadata>
  <defs
     id="defs3414" />
  <sodipodi:namedview
     pagecolor="#ffffff"
     bordercolor="#666666"
     borderopacity="1"
     objecttolerance="10"
     gridtolerance="10"
     guidetolerance="10"
     inkscape:pageopacity="0"
     inkscape:pageshadow="2"
     inkscape:window-width="1317"
     inkscape:window-height="744"
     id="namedview3412"
     showgrid="false"
     inkscape:zoom="0.73539105"
     inkscape:cx="32.411688"
     inkscape:cy="180.38489"
     inkscape:window-x="49"
     inkscape:window-y="24"
     inkscape:window-maximized="1"
     inkscape:current-layer="g3398" />
  <g
     id="g3398">
    <g
       id="g4323"
       transform="matrix(0.85481996,0,0,0.85481996,56.546938,85.717863)" />
    <g
       id="g4325"
       transform="matrix(0.85481996,0,0,0.85481996,56.546938,85.717863)" />
    <g
       id="g4327"
       transform="matrix(0.85481996,0,0,0.85481996,56.546938,85.717863)" />
    <g
       id="g4329"
       transform="matrix(0.85481996,0,0,0.85481996,56.546938,85.717863)" />
    <g
       id="g4331"
       transform="matrix(0.85481996,0,0,0.85481996,56.546938,85.717863)" />
    <g
       id="g4333"
       transform="matrix(0.85481996,0,0,0.85481996,56.546938,85.717863)" />
    <g
       id="g4335"
       transform="matrix(0.85481996,0,0,0.85481996,56.546938,85.717863)" />
    <g
       id="g4337"
       transform="matrix(0.85481996,0,0,0.85481996,56.546938,85.717863)" />
    <g
       id="g4339"
       transform="matrix(0.85481996,0,0,0.85481996,56.546938,85.717863)" />
    <g
       id="g4341"
       transform="matrix(0.85481996,0,0,0.85481996,56.546938,85.717863)" />
    <g
       id="g4343"
       transform="matrix(0.85481996,0,0,0.85481996,56.546938,85.717863)" />
    <g
       id="g4345"
       transform="matrix(0.85481996,0,0,0.85481996,56.546938,85.717863)" />
    <g
       id="g4347"
       transform="matrix(0.85481996,0,0,0.85481996,56.546938,85.717863)" />
    <g
       id="g4349"
       transform="matrix(0.85481996,0,0,0.85481996,56.546938,85.717863)" />
    <g
       id="g4351"
       transform="matrix(0.85481996,0,0,0.85481996,56.546938,85.717863)" />
    <g
       id="g4463"
       transform="matrix(1.2554255,0,0,1.2554255,-29.7176,-36.306953)">
      <g
         transform="matrix(0.85481996,0,0,0.85481996,56.546938,85.717863)"
         id="g4277">
        <rect
           x="84.550003"
           y="148.231"
           style="fill:#fdcc9b"
           width="29.395"
           height="32.922001"
           id="rect4279" />
        <path
           inkscape:connector-curvature="0"
           style="fill:#fcbc85"
           d="m 84.551,152.108 c 0,0 12.365,7.874 29.395,6.05 l 0,-9.928 -29.395,0 0,3.878 z"
           id="path4281" />
        <ellipse
           style="fill:#fcbc85"
           cx="42.164001"
           cy="97.181"
           rx="14.343"
           ry="16.364"
           id="ellipse4283" />
        <ellipse
           style="fill:#fcbc85"
           cx="156.332"
           cy="97.181"
           rx="14.343"
           ry="16.364"
           id="ellipse4285" />
        <path
           inkscape:connector-curvature="0"
           style="fill:#fdcc9b"
           d="m 156.274,65.925 c 0,-24.103 -17.637,-41.741 -57.026,-41.741 -39.389,0 -57.026,17.637 -57.026,41.741 0,24.104 -4.115,87.597 57.026,87.597 61.141,0 57.026,-63.493 57.026,-87.597 z"
           id="path4287" />
        <g
           id="g4289">
          <g
             id="g4291">
            <ellipse
               style="fill:#3b2519"
               cx="71.472"
               cy="93.262001"
               rx="6.1729999"
               ry="6.7610002"
               id="ellipse4293" />
            <circle
               style="fill:#ffffff"
               cx="68.780998"
               cy="90.277"
               r="1.846"
               id="circle4295" />
          </g>
          <path
             inkscape:connector-curvature="0"
             style="fill:#51362a"
             d="m 61.597,76.507 c 2.919,1.46 7.606,-4.96 18.335,0.625 1.956,1.018 3.123,-8.708 -8.377,-8.708 -9.958,0 -11.722,7.202 -9.958,8.083 z"
             id="path4297" />
          <g
             id="g4299">
            <ellipse
               style="fill:#3b2519"
               cx="127.786"
               cy="93.262001"
               rx="6.1729999"
               ry="6.7610002"
               id="ellipse4301" />
            <circle
               style="fill:#ffffff"
               cx="125.095"
               cy="90.277"
               r="1.846"
               id="circle4303" />
          </g>
          <path
             inkscape:connector-curvature="0"
             style="fill:#51362a"
             d="m 136.899,76.507 c -2.919,1.46 -7.606,-4.96 -18.335,0.625 -1.956,1.018 -3.123,-8.708 8.378,-8.708 9.957,0 11.72,7.202 9.957,8.083 z"
             id="path4305" />
        </g>
        <path
           inkscape:connector-curvature="0"
           style="fill:#fcbc85"
           d="m 99.248,117.043 c -6.1,0 -9.774,-4.556 -9.774,-2.352 0,2.205 1.764,6.394 9.774,6.394 8.01,0 9.774,-4.189 9.774,-6.394 0,-2.205 -3.675,2.352 -9.774,2.352 z"
           id="path4307" />
        <path
           inkscape:connector-curvature="0"
           style="fill:#fcbc85"
           d="m 99.248,137.313 c -2.11,0 -3.381,-1.576 -3.381,-0.813 0,0.763 0.61,2.211 3.381,2.211 2.771,0 3.38,-1.448 3.38,-2.211 0,-0.763 -1.271,0.813 -3.38,0.813 z"
           id="path4309" />
        <path
           inkscape:connector-curvature="0"
           style="fill:#f7945e"
           d="m 99.248,131.696 c -9.668,0 -15.493,-3.937 -15.493,-2.939 0,0.998 2.796,4.924 15.493,4.924 12.697,0 15.493,-3.926 15.493,-4.924 -0.001,-0.998 -5.825,2.939 -15.493,2.939 z"
           id="path4311" />
      </g>
      <path
         sodipodi:nodetypes="sccs"
         inkscape:connector-curvature="0"
         id="path4313"
         d="m 141.38672,223.73633 c -18.80899,0 -39.00172,7.98426 -50.807667,17.09296 -6.661182,21.21169 103.588457,25.595 104.082257,2.02839 -11.29153,-9.91754 -33.08013,-19.12135 -53.27459,-19.12135 z"
         style="fill:#f7941e" />
      <path
         inkscape:connector-curvature="0"
         style="fill:#f36c21"
         d="m 141.38611,223.73538 c -6.14616,0 -12.43934,0.8591 -18.54019,2.32511 0.041,0.0539 6.76675,8.73114 18.54019,8.73114 10.90237,0 18.15039,-7.43095 19.20097,-8.57385 -6.30687,-1.56517 -12.83256,-2.4824 -19.20097,-2.4824 z"
         id="path4317" />
      <path
         inkscape:connector-curvature="0"
         style="fill:#fdcc9b"
         d="m 128.82197,224.83126 c 0,0 3.67487,4.5579 12.56328,4.5579 8.88842,0 12.56415,-4.5579 12.56415,-4.5579 0,0 -13.0343,-4.7451 -25.12743,0 z"
         id="path4319" />
      <path
         inkscape:connector-curvature="0"
         style="fill:#51362a"
         d="m 181.46349,101.99449 c 0,0 -18.09141,-22.991238 -55.69323,-14.322509 -37.600967,8.667875 -40.418454,31.282989 -39.287527,53.285199 1.130927,22.00307 4.145877,34.91085 7.712186,33.31576 3.566309,-1.59595 1.710494,-16.11934 2.08747,-19.47109 0.376976,-3.35175 3.768901,-18.50942 26.637901,-16.24757 22.86814,2.26186 42.1392,-6.03075 42.1392,-6.03075 0,0 7.75749,9.80564 12.86248,11.68453 10.20142,3.75352 6.85566,28.78179 10.85279,28.78179 3.99714,0 23.5956,-57.80378 -7.31127,-70.99536 z"
         id="path4321" />
    </g>
    <g
       id="g4539"
       transform="matrix(7.0859829,0,0,7.0859829,0.08000468,0.07999549)"
       style="fill:#666666">
      <path
         id="path4501"
         d="M 53.627,49.385 37.795,33.553 C 40.423,30.046 42,25.709 42,21 42,9.42 32.58,0 21,0 9.42,0 0,9.42 0,21 c 0,11.58 9.42,21 21,21 4.709,0 9.046,-1.577 12.553,-4.205 l 15.832,15.832 4.242,-4.242 z M 2,21 C 2,10.523 10.523,2 21,2 31.477,2 40,10.523 40,21 40,31.477 31.477,40 21,40 10.523,40 2,31.477 2,21 Z m 33.567,15.093 c 0.178,-0.172 0.353,-0.347 0.525,-0.525 0.146,-0.151 0.304,-0.29 0.445,-0.445 L 50.799,49.385 49.384,50.8 35.123,36.537 c 0.155,-0.141 0.293,-0.299 0.444,-0.444 z"
         inkscape:connector-curvature="0"
         style="fill:#666666" />
      <g
         id="g4503"
         style="fill:#666666" />
      <g
         id="g4505"
         style="fill:#666666" />
      <g
         id="g4507"
         style="fill:#666666" />
      <g
         id="g4509"
         style="fill:#666666" />
      <g
         id="g4511"
         style="fill:#666666" />
      <g
         id="g4513"
         style="fill:#666666" />
      <g
         id="g4515"
         style="fill:#666666" />
      <g
         id="g4517"
         style="fill:#666666" />
      <g
         id="g4519"
         style="fill:#666666" />
      <g
         id="g4521"
         style="fill:#666666" />
      <g
         id="g4523"
         style="fill:#666666" />
      <g
         id="g4525"
         style="fill:#666666" />
      <g
         id="g4527"
         style="fill:#666666" />
      <g
         id="g4529"
         style="fill:#666666" />
      <g
         id="g4531"
         style="fill:#666666" />
    </g>
    <path
       style="opacity:1;fill:#55ff55;fill-opacity:1;stroke:#55ff55"
       d="M 78.538302,263.07833 C 57.928307,250.43338 38.820458,229.25787 28.175518,207.26578 17.786072,185.80154 13.678532,163.90954 15.298043,138.63253 19.187289,77.92992 65.822373,27.053714 127.22725,16.524169 c 14.83517,-2.543895 36.86982,-1.954726 50.88099,1.36047 40.45456,9.571986 72.39512,34.723429 90.92918,71.601748 16.14173,32.118143 18.34146,69.781933 6.10928,104.602633 -9.16061,26.07699 -28.43892,50.72715 -51.86198,66.31318 -4.18832,2.78696 -8.28683,5.24285 -9.10781,5.45754 -0.82098,0.2147 -3.70014,-1.09792 -6.39814,-2.91692 -10.75447,-7.2507 -26.80828,-13.81875 -41.60279,-17.02084 -2.35528,-0.50977 -2.47651,-0.79162 -2.47651,-5.75768 l 0,-5.22168 5.17815,-1.62383 c 8.75231,-2.74468 13.91704,-5.89698 20.58721,-12.56547 6.47379,-6.47216 10.71479,-13.39798 13.84625,-22.61183 l 1.53032,-4.50274 4.91619,-0.53771 c 6.14484,-0.67209 9.17917,-2.62815 12.28604,-7.92012 4.32128,-7.36046 2.5373,-19.60436 -3.46943,-23.81163 -1.8756,-1.31373 -1.87719,-1.35989 -0.35875,-10.44082 2.1047,-12.58706 1.52127,-30.72203 -1.2323,-38.30385 -2.94149,-8.09919 -7.3184,-14.040227 -13.3172,-18.076202 -2.91245,-1.959494 -7.38402,-5.424379 -9.93682,-7.699747 -5.95222,-5.30534 -17.23209,-11.165455 -26.16926,-13.595446 -9.79207,-2.662432 -27.15377,-2.692017 -38.58501,-0.06575 -27.67005,6.357049 -43.236673,18.981193 -48.585843,39.401915 -2.031567,7.7556 -2.6049,21.63075 -1.444323,34.95378 l 1.005215,11.53952 -2.830517,2.38172 c -9.365031,7.88016 -7.683873,24.89505 3.009484,30.4588 1.337483,0.6959 4.228876,1.26526 6.425319,1.26526 l 3.993532,0 1.535853,4.72788 c 5.747813,17.69374 19.86613,31.81804 35.81909,35.83427 l 4.2776,1.0769 0,5.27922 c 0,5.02269 -0.12035,5.30651 -2.47651,5.84069 -16.69815,3.78569 -30.567937,9.35481 -41.20009,16.54303 -1.981206,1.33946 -4.00744,2.64947 -4.502742,2.91112 -0.495302,0.26166 -2.953484,-0.78381 -5.462626,-2.32325 z"
       id="path4643"
       inkscape:connector-curvature="0" />
  </g>
</svg>
